<svg width="168" height="50" viewBox="0 0 168 50" fill="none" xmlns="http://www.w3.org/2000/svg">
<g clip-path="url(#clip0_2_147)">
<path d="M163.8 0H4.2C1.8804 0 0 1.86548 0 4.16667V45.8333C0 48.1345 1.8804 50 4.2 50H163.8C166.12 50 168 48.1345 168 45.8333V4.16667C168 1.86548 166.12 0 163.8 0Z" fill="black"/>
<path d="M34.944 20.293L16.2862 10.0708C15.757 9.78331 15.2698 9.71386 14.875 9.83886L30.156 25.0611L34.944 20.2903" fill="url(#paint0_linear_2_147)"/>
<path fill-rule="evenodd" clip-rule="evenodd" d="M34.9678 29.8583L41.3378 26.3694C42.6286 25.6583 42.6286 24.5028 41.3378 23.7944L34.944 20.2944L30.156 25.0639L34.9678 29.8583Z" fill="url(#paint1_linear_2_147)"/>
<path d="M14.875 9.83887C14.3052 10.0139 13.937 10.5889 13.937 11.45L13.9426 38.7083C13.9426 39.5639 14.2982 40.1278 14.8498 40.3166L30.156 25.0639L14.875 9.83887Z" fill="url(#paint2_linear_2_147)"/>
<path d="M14.8499 40.3194C15.2475 40.4528 15.7459 40.3889 16.2863 40.0944L34.9651 29.8583L30.1561 25.0667L14.8499 40.3194Z" fill="url(#paint3_linear_2_147)"/>
<path fill-rule="evenodd" clip-rule="evenodd" d="M57.3607 8.44025C58.5367 8.44025 59.3515 8.96525 59.8807 9.50275L59.0547 10.4236C58.6291 10.0139 58.1629 9.73191 57.3747 9.73191C55.8739 9.73191 54.8659 10.8847 54.8659 12.7652C54.8659 14.6736 55.7703 15.8264 57.4643 15.8264C57.9305 15.8264 58.3953 15.6986 58.6683 15.4541V13.6486H57.0751V12.4347H60.0109V16.1208C59.4299 16.6583 58.4345 17.118 57.2837 17.118C55.0325 17.118 53.3259 15.5833 53.3259 12.8055C53.3259 10.0652 55.0843 8.44025 57.3579 8.44025M65.5731 13.2639C65.5731 12.2666 65.1489 11.6666 64.2823 11.6666C63.5319 11.6666 62.8851 12.2152 62.7563 13.2639H65.5731ZM64.2431 10.5277C65.9623 10.5277 66.8681 11.7541 66.8681 13.5069C66.8681 13.7902 66.8401 14.0444 66.8037 14.1986H62.7689C62.8949 15.3375 63.6229 15.9791 64.6449 15.9791C65.1853 15.9791 65.6501 15.8125 66.1149 15.518L66.6189 16.4389C66.0127 16.8347 65.2511 17.1166 64.4489 17.1166C62.6891 17.1166 61.3199 15.9014 61.3199 13.8277C61.3213 11.7777 62.7563 10.5277 64.2431 10.5277ZM68.3171 11.8444H67.4141V10.7444L68.3969 10.6805L68.5789 8.96386H69.8193V10.6805H71.4349V11.8444H69.8193V14.8389C69.8193 15.5805 70.1021 15.9389 70.7111 15.9389C70.9309 15.9389 71.1899 15.875 71.3691 15.8L71.6295 16.8861C71.2795 17.0014 70.8399 17.1166 70.3359 17.1166C68.8617 17.1166 68.3199 16.1944 68.3199 14.8389V11.8444H68.3171Z" fill="#E7E7E7"/>
<mask id="mask0_2_147" style="mask-type:luminance" maskUnits="userSpaceOnUse" x="51" y="7" width="106" height="39">
<path d="M51.5032 7.90277H156.422V45.125H51.5032V7.90277Z" fill="#E7E7E7"/>
</mask>
<g mask="url(#mask0_2_147)">
<path fill-rule="evenodd" clip-rule="evenodd" d="M75.4208 10.6805H76.9076V16.9639H75.4208V10.6805ZM75.2528 8.74722C75.2528 8.24722 75.6406 7.90277 76.1698 7.90277C76.7018 7.90277 77.0868 8.24999 77.0868 8.74722C77.0868 9.23333 76.7004 9.58055 76.1684 9.58055C75.6364 9.58055 75.25 9.23333 75.25 8.74722H75.2528ZM79.03 11.8444H78.1242V10.7444L79.1084 10.6805L79.2904 8.96388H80.5308V10.6805H82.1464V11.8444H80.5308V14.8389C80.5308 15.5805 80.8136 15.9389 81.4226 15.9389C81.6438 15.9389 81.9014 15.875 82.0834 15.8L82.3424 16.8861C81.9924 17.0014 81.5528 17.1167 81.0488 17.1167C79.5746 17.1167 79.0328 16.1944 79.0328 14.8389V11.8444H79.03ZM88.7292 15.9139C89.6616 15.9139 90.23 15.0805 90.23 13.8278C90.23 12.5611 89.6616 11.7305 88.7292 11.7305C87.7982 11.7305 87.2452 12.5611 87.2452 13.8278C87.2452 15.0819 87.7982 15.9139 88.7292 15.9139ZM88.7292 10.525C90.3196 10.525 91.756 11.7292 91.756 13.8278C91.756 15.9139 90.3196 17.1194 88.7292 17.1194C87.1514 17.1194 85.7192 15.9139 85.7192 13.8278C85.7192 11.7305 87.1514 10.5264 88.7292 10.5264M93.233 10.6805H94.4608L94.5644 11.525H94.6148C95.1846 10.975 95.8328 10.525 96.698 10.525C98.056 10.525 98.6496 11.4347 98.6496 13.0222V16.9639H97.1628V13.2139C97.1628 12.1764 96.8688 11.7944 96.1688 11.7944C95.6116 11.7944 95.2504 12.0611 94.7184 12.5722V16.9639H93.2344V10.6805H93.233Z" fill="#E7E7E7"/>
</g>
<mask id="mask1_2_147" style="mask-type:luminance" maskUnits="userSpaceOnUse" x="51" y="7" width="106" height="39">
<path d="M51.5032 7.90277H156.422V45.125H51.5032V7.90277Z" fill="white"/>
</mask>
<g mask="url(#mask1_2_147)">
<path fill-rule="evenodd" clip-rule="evenodd" d="M127.498 29.7528C126.442 29.7528 125.678 30.0444 125.206 30.6236C124.734 31.2014 124.492 32.1236 124.478 33.3875V33.7347C124.478 35.1708 124.72 36.1986 125.206 36.8208C125.689 37.4403 126.466 37.7514 127.537 37.7514C128.43 37.7514 129.133 37.3903 129.637 36.675C130.145 35.9611 130.397 34.9722 130.397 33.7139C130.397 32.4389 130.145 31.4583 129.636 30.7764C129.132 30.093 128.418 29.7514 127.497 29.7514M127.725 39.0472C127.05 39.0472 126.437 38.925 125.88 38.6791C125.32 38.431 124.836 38.0393 124.48 37.5444H124.363C124.44 38.1416 124.478 38.7083 124.478 39.243V43.4569H122.913V28.625H124.187L124.403 30.025H124.478C124.881 29.4639 125.349 29.0625 125.887 28.8111C126.464 28.5542 127.092 28.4271 127.725 28.4389C129.097 28.4389 130.155 28.9014 130.903 29.8278C131.645 30.7555 132.017 32.0597 132.017 33.7347C132.017 35.4153 131.639 36.7208 130.883 37.6514C130.123 38.5819 129.072 39.0472 127.725 39.0472ZM135.646 38.8611H134.078V24.3278H135.646V38.8611ZM141.114 37.7694C142.09 37.7694 142.857 37.5055 143.41 36.9778C143.968 36.4458 144.246 35.7041 144.246 34.7514V33.8305L142.678 33.8944C141.432 33.9389 140.536 34.1305 139.987 34.4694C139.436 34.8083 139.161 35.3389 139.161 36.0528C139.161 36.6125 139.329 37.0389 139.675 37.3305C140.018 37.625 140.497 37.7694 141.114 37.7694ZM144.651 38.8625L144.343 37.4069H144.266C143.748 38.05 143.234 38.4833 142.72 38.7083C142.209 38.9347 141.568 39.0486 140.802 39.0486C139.776 39.0486 138.972 38.7875 138.39 38.2653C137.808 37.743 137.516 37.0014 137.516 36.0333C137.516 33.9666 139.185 32.8805 142.528 32.7833L144.283 32.7278V32.0889C144.283 31.2889 144.108 30.6944 143.758 30.3111C143.408 29.9291 142.848 29.7375 142.082 29.7375C141.221 29.7375 140.248 30.0014 139.16 30.5222L138.677 29.3347C139.187 29.0625 139.745 28.8486 140.351 28.6903C140.948 28.5365 141.563 28.4586 142.18 28.4583C143.412 28.4583 144.325 28.7278 144.92 29.2708C145.513 29.8125 145.811 30.6791 145.811 31.875V38.8611H144.649L144.651 38.8625ZM146.723 28.625H148.403L150.668 34.4639C151.162 35.7972 151.473 36.7583 151.592 37.35H151.666C151.75 37.0305 151.918 36.4889 152.184 35.718C152.443 34.95 153.296 32.5833 154.742 28.6236H156.422L151.98 40.2805C151.537 41.4333 151.024 42.25 150.434 42.7333C149.846 43.2166 149.124 43.4555 148.27 43.4555C147.791 43.4555 147.318 43.4 146.853 43.2958V42.0528C147.199 42.1305 147.587 42.1666 148.015 42.1666C149.089 42.1666 149.856 41.5666 150.315 40.375L150.895 38.9166L146.723 28.6208V28.625ZM97.7983 35.0139C98.2967 34.5194 98.3401 33.8389 98.3401 33.4514C98.3401 31.9097 97.4091 29.5111 95.6143 29.5111C95.0515 29.5111 94.4453 29.7916 94.0995 30.2194C93.7313 30.668 93.6235 31.2472 93.6235 31.8028C93.6235 33.2375 94.4691 35.6166 96.3283 35.6166C96.8767 35.6035 97.4006 35.3887 97.7983 35.0139ZM97.1725 39.0833C97.0003 39.0611 96.8925 39.0611 96.6769 39.0611C96.4809 39.0611 95.3119 39.1028 94.4047 39.4083C93.9287 39.575 92.5427 40.0916 92.5427 41.6097C92.5427 43.1278 94.0379 44.2208 96.3507 44.2208C98.4283 44.2208 99.5315 43.2375 99.5315 41.9097C99.5315 40.8153 98.8175 40.2389 97.1739 39.0833H97.1725ZM98.7083 29.5764C99.2081 29.9819 100.244 30.8403 100.244 32.4653C100.244 34.0514 99.3341 34.8014 98.4283 35.5069C98.1483 35.7819 97.8207 36.0875 97.8207 36.5583C97.8207 37.0278 98.1469 37.2847 98.3849 37.4778L99.1647 38.075C100.117 38.8708 100.981 39.5972 100.981 41.075C100.981 43.0889 99.0093 45.1236 95.2909 45.1236C92.1549 45.1236 90.6429 43.643 90.6429 42.0597C90.6429 41.2875 91.0279 40.1986 92.3089 39.4458C93.6473 38.6319 95.4659 38.5264 96.4389 38.4597C96.1337 38.0764 95.7893 37.668 95.7893 37.0083C95.7893 36.6403 95.8971 36.425 96.0049 36.168C95.7669 36.1903 95.5289 36.2097 95.3119 36.2097C93.0215 36.2097 91.7237 34.518 91.7237 32.8486C91.7237 31.8653 92.1773 30.7722 93.1069 29.9805C94.3389 28.975 95.8089 28.8028 96.9807 28.8028H101.437L100.051 29.5736H98.7097L98.7083 29.5764ZM87.7883 37.0097C88.3063 36.3264 88.4365 35.468 88.4365 34.6347C88.4365 32.7541 87.5335 29.1625 84.8525 29.1625C84.1413 29.1625 83.4287 29.4403 82.9107 29.8903C82.0707 30.6403 81.9167 31.5805 81.9167 32.5014C81.9167 34.6166 82.9751 38.1014 85.5889 38.1014C86.4289 38.1014 87.2969 37.6944 87.7897 37.0111M85.0919 38.7444C81.6591 38.7444 79.8237 36.0916 79.8237 33.6958C79.8237 30.8972 82.1337 28.5014 85.4167 28.5014C88.5905 28.5014 90.5785 30.9597 90.5785 33.5486C90.5785 36.0708 88.6129 38.743 85.0905 38.743M76.0843 37.0097C76.6023 36.3264 76.7311 35.468 76.7311 34.6347C76.7311 32.7541 75.8239 29.1625 73.1471 29.1625C72.4331 29.1625 71.7191 29.4403 71.2039 29.8903C70.3583 30.6403 70.2099 31.5805 70.2099 32.5014C70.2099 34.6166 71.2669 38.1014 73.8807 38.1014C74.7235 38.1014 75.5859 37.6944 76.0843 37.0111M73.3851 38.7444C69.9495 38.7444 68.1127 36.0916 68.1127 33.6958C68.1127 30.8972 70.4255 28.5014 73.7085 28.5014C76.8837 28.5014 78.8703 30.9597 78.8703 33.5486C78.8703 36.0708 76.9061 38.743 73.3865 38.743M66.4621 38.4069L63.3597 39.1153C62.0955 39.3097 60.9657 39.4791 59.7757 39.4791C53.7837 39.4791 51.5017 35.118 51.5017 31.7014C51.5017 27.5305 54.7357 23.6625 60.2741 23.6625C61.3963 23.6644 62.5133 23.8158 63.5949 24.1125C65.2245 24.5653 65.9847 25.1236 66.4607 25.4458L64.6589 27.143L63.9001 27.3153L64.4433 26.4541C63.7041 25.7458 62.3573 24.4347 59.7953 24.4347C56.3653 24.4347 53.7823 27.018 53.7823 30.7778C53.7823 34.8166 56.7321 38.6222 61.4655 38.6222C62.8571 38.6222 63.5725 38.3403 64.2235 38.0833V34.625L60.9475 34.7958L62.6835 33.868H67.2867L66.7211 34.4097C66.5671 34.5375 66.5461 34.5791 66.5041 34.7528C66.4817 34.9444 66.4593 35.5694 66.4593 35.7805V38.4055L66.4621 38.4069Z" fill="white"/>
</g>
<mask id="mask2_2_147" style="mask-type:luminance" maskUnits="userSpaceOnUse" x="51" y="7" width="106" height="39">
<path d="M51.5032 7.90277H156.422V45.125H51.5032V7.90277Z" fill="white"/>
</mask>
<g mask="url(#mask2_2_147)">
<path fill-rule="evenodd" clip-rule="evenodd" d="M105.571 37.7875C104.854 37.7222 104.703 37.5958 104.703 36.7542V24.5903L104.717 24.4514C104.804 23.6986 105.019 23.5708 105.697 23.1819H102.589L100.959 23.9597H102.618V37.2264C102.618 37.6569 102.534 37.7222 102.033 38.3653H105.876L106.681 37.8972C106.312 37.85 105.942 37.8306 105.572 37.7861M112.379 31.6208C112.789 31.4736 113.004 31.3431 113.004 31.0472C113.004 30.1944 112.033 29.2111 110.869 29.2111C110.005 29.2111 108.391 29.8736 108.391 32.1792C108.391 32.5403 108.433 32.925 108.456 33.3083L112.376 31.6194L112.379 31.6208ZM114.409 37.9847C114.171 38.1097 113.933 38.2625 113.698 38.3667C112.984 38.6903 112.25 38.7736 111.602 38.7736C110.916 38.7736 109.835 38.7292 108.736 37.9403C107.205 36.8736 106.538 35.0375 106.538 33.4361C106.538 30.1264 109.257 28.5056 111.476 28.5056C112.252 28.5056 113.05 28.7 113.699 29.1028C114.775 29.8069 115.055 30.7236 115.206 31.2167L110.141 33.2444L108.479 33.3736C109.018 36.0819 110.873 37.6625 112.921 37.6625C114.021 37.6625 114.819 37.2778 115.553 36.9167L114.411 37.9861L114.409 37.9847ZM116.488 28.6528V30.0611H116.315V28.6528H115.844V28.5069H116.96V28.6528H116.488ZM118.427 30.0611V28.6389H118.423L117.982 30.0611H117.846L117.404 28.6403H117.4V30.0625H117.24V28.5069H117.51L117.911 29.7653H117.913L118.308 28.5083H118.58V30.0639H118.426L118.427 30.0611Z" fill="white"/>
</g>
</g>
<defs>
<linearGradient id="paint0_linear_2_147" x1="400.501" y1="-527.48" x2="1017.43" y2="1554.25" gradientUnits="userSpaceOnUse">
<stop stop-color="#19A3B4"/>
<stop offset="0.34817" stop-color="#5BC3AF"/>
<stop offset="0.92234" stop-color="#C9F7A6"/>
<stop offset="1" stop-color="#D7FEA5"/>
</linearGradient>
<linearGradient id="paint1_linear_2_147" x1="-148.423" y1="-1073.07" x2="561.636" y2="1228.64" gradientUnits="userSpaceOnUse">
<stop stop-color="#FC227C"/>
<stop offset="1" stop-color="#FEEB7B"/>
</linearGradient>
<linearGradient id="paint2_linear_2_147" x1="470.518" y1="-441.659" x2="1511.72" y2="2260.26" gradientUnits="userSpaceOnUse">
<stop stop-color="#0E4DA0"/>
<stop offset="1" stop-color="#6BFED4"/>
</linearGradient>
<linearGradient id="paint3_linear_2_147" x1="2674.98" y1="277.312" x2="738.66" y2="2488.82" gradientUnits="userSpaceOnUse">
<stop stop-color="#FC472E"/>
<stop offset="0.00332" stop-color="#FC472E"/>
<stop offset="1" stop-color="#893CD8"/>
</linearGradient>
<clipPath id="clip0_2_147">
<rect width="168" height="50" fill="white"/>
</clipPath>
</defs>
</svg>
